Coordinates
version=1
nRows=17
nColumns=24
inDegrees=yes

Units are S.I. units (second, meters, Newtons, ...)
Angles are in degrees.

endheader
time	pelvis_tilt	pelvis_list	pelvis_rotation	pelvis_tx	pelvis_ty	pelvis_tz	hip_flexion_r	hip_adduction_r	hip_rotation_r	knee_angle_r	ankle_angle_r	subtalar_angle_r	mtp_angle_r	hip_flexion_l	hip_adduction_l	hip_rotation_l	knee_angle_l	ankle_angle_l	subtalar_angle_l	mtp_angle_l	lumbar_extension	lumbar_bending	lumbar_rotation
      4.62500000	     -9.51108075	      6.44405783	     -2.81682414	     -0.76203109	     -0.01693049	     -0.27600905	     26.20306972	    -10.78841794	     -3.27125926	    -64.15540175	    -14.96864759	      3.03578587	     26.04434187	     16.04505866	     10.74276719	      8.54679278	    -16.49068362	      6.11639129	     -0.07415058	    -14.05741327	     11.12175497	     -9.22412025	     -1.06848085
      4.63000000	     -9.44123394	      6.08531124	     -2.53100875	     -0.75578173	     -0.01598379	     -0.27661408	     26.74750310	    -10.55616710	     -3.78428845	    -63.66476307	    -14.33027668	      3.02005694	     26.07067545	     15.17317365	     10.50831995	      9.20622388	    -15.96419359	      6.26633164	     -0.38050455	    -14.42901079	     10.98034240	     -8.88349345	     -1.46673269
      4.63500000	     -9.42642554	      5.70006329	     -2.26261585	     -0.74960090	     -0.01516547	     -0.27717683	     27.34348428	    -10.26933611	     -4.25732942	    -63.10518614	    -13.71809359	      3.04763694	     26.10557328	     14.40685509	     10.21214122	      9.69905579	    -15.49336206	      6.44040053	     -0.54539087	    -14.65516128	     10.89503438	     -8.50861689	     -1.90586830
      4.64000000	     -9.34969698	      5.36050812	     -1.93953938	     -0.74346957	     -0.01442721	     -0.27777132	     27.85630832	    -10.07716910	     -4.80907992	    -62.50965250	    -13.06672020	      3.03039028	     26.06942231	     13.57106259	      9.97463019	     10.36189008	    -15.02239185	      6.65424121	     -0.76003512	    -14.97878159	     10.72883058	     -8.20976903	     -2.37620546
      4.64500000	     -9.30999702	      5.01594867	     -1.64189448	     -0.73732820	     -0.01378103	     -0.27834383	     28.39756677	     -9.86429218	     -5.32981687	    -61.84234768	    -12.44834522	      3.06580513	     26.00377945	     12.79187535	      9.70492087	     10.90409440	    -14.56248624	      6.87481528	     -0.90330530	    -15.27687755	     10.61589762	     -7.88680782	     -2.80308906
      4.65000000	     -9.30934592	      4.67173924	     -1.36743644	     -0.73119258	     -0.01324125	     -0.27887494	     28.97126289	     -9.63582624	     -5.82147629	    -61.10529485	    -11.87390188	      3.12920529	     25.95612579	     12.07692803	      9.40903054	     11.31490543	    -14.11727156	      7.08794579	     -0.96104786	    -15.46114612	     10.55548270	     -7.55533829	     -3.20437682
      4.65500000	     -9.24676954	      4.38036091	     -1.03894751	     -0.72512238	     -0.01279285	     -0.27939500	     29.46214385	     -9.49116215	     -6.35946958	    -60.33728943	    -11.23677289	      3.14290484	     25.82021533	     11.30160580	      9.17061820	     11.85075723	    -13.68459644	      7.34873996	     -1.01959962	    -15.69739672	     10.41008925	     -7.31222334	     -3.66270280
      4.66000000	     -9.25418246	      4.08065304	     -0.76823070	     -0.71901622	     -0.01245835	     -0.27988078	     30.02040578	     -9.30399821	     -6.82784439	    -59.48829252	    -10.66444139	      3.22518606	     25.72900127	     10.61739906	      8.89498167	     12.20375112	    -13.25347055	      7.57715846	     -1.01926160	    -15.83106567	     10.36352465	     -7.03023803	     -4.04426279
      4.66500000	     -9.19930170	      3.82732974	     -0.44573298	     -0.71297293	     -0.01220912	     -0.28033050	     30.49265845	     -9.18654103	     -7.33735393	    -58.60571542	    -10.02594681	      3.26896910	     25.53997503	      9.87561404	      8.66750397	     12.66366161	    -12.84096547	      7.85445973	     -1.01100936	    -15.99109379	     10.22991332	     -6.83142018	     -4.48714259
      4.67000000	     -9.18858941	      3.57922626	     -0.15771493	     -0.70690407	     -0.01207296	     -0.28075752	     30.99977077	     -9.05221384	     -7.79752977	    -57.65178948	     -9.41678213	      3.36416897	     25.37427686	      9.19306874	      8.42894423	     13.01734666	    -12.43291597	      8.11158171	     -0.97729126	    -16.09619631	     10.15941416	     -6.61679228	     -4.88522249
      4.67500000	     -9.17338123	      3.35788701	      0.12846252	     -0.70085461	     -0.01203863	     -0.28111349	     31.48918490	     -8.93694094	     -8.24520988	    -56.64533170	     -8.80345320	      3.46542929	     25.19301858	      8.51705568	      8.20656865	     13.35499370	    -12.03710607	      8.37733262	     -0.93343756	    -16.16852874	     10.08012042	     -6.44420147	     -5.27812749
      4.68000000	     -9.16198865	      3.15387591	      0.40700161	     -0.69480680	     -0.01209963	     -0.28143762	     31.96636288	     -8.82876568	     -8.66981796	    -55.58068728	     -8.18590097	      3.59425197	     24.99636483	      7.85381471	      7.99410614	     13.67249480	    -11.65058190	      8.64019140	     -0.88850190	    -16.22154896	     10.00727105	     -6.28585558	     -5.65640227
      4.68500000	     -9.17785564	      2.95933033	      0.66472564	     -0.68875512	     -0.01226478	     -0.28172575	     32.45681076	     -8.71833242	     -9.07551465	    -54.44770660	     -7.59419687	      3.76138630	     24.84146161	      7.23215349	      7.78366811	     13.92318361	    -11.27522350	      8.88947071	     -0.84849478	    -16.24184699	      9.96934647	     -6.13457138	     -6.00678317
      4.69000000	     -9.16823674	      2.78856725	      0.93926461	     -0.68272858	     -0.01250257	     -0.28196469	     32.89510534	     -8.62327889	     -9.45946216	    -53.25681931	     -6.96879820	      3.95586015	     24.64357961	      6.59403429	      7.59247606	     14.22417241	    -10.92306731	      9.16285349	     -0.80751275	    -16.25237709	      9.90072325	     -6.01853301	     -6.37592413
      4.69500000	     -9.16888184	      2.63653909	      1.19054185	     -0.67672171	     -0.01282865	     -0.28214142	     33.33355416	     -8.52814054	     -9.81312441	    -52.01117090	     -6.34908164	      4.19476068	     24.43934921	      5.97602757	      7.41267156	     14.49418951	    -10.58060980	      9.42543106	     -0.77656320	    -16.26353495	      9.83715698	     -5.92536340	     -6.71859533
      4.70000000	     -9.17584089	      2.49303687	      1.42302151	     -0.67072599	     -0.01325470	     -0.28225343	     33.76653440	     -8.42723507	    -10.14892612	    -50.71525115	     -5.73257458	      4.49603038	     24.23936295	      5.36815398	      7.23235163	     14.74376239	    -10.23890488	      9.71328884	     -0.75909468	    -16.26468075	      9.77999435	     -5.84099862	     -7.05764324
      4.70500000	     -9.26237414	      2.36340743	      1.58338899	     -0.66475515	     -0.01379581	     -0.28225364	     34.27274826	     -8.26132250	    -10.32528902	    -49.32292820	     -5.19465839	      4.78736381	     24.17109366	      4.86939266	      7.05819280	     14.88893954	     -9.93029299	      9.96175401	     -0.74257075	    -16.23615765	      9.81613824	     -5.75212895	     -7.27638992
